<svg width="48" height="43" viewBox="0 0 48 43" fill="none" xmlns="http://www.w3.org/2000/svg">
<path d="M13.2395 20.4125L8.55049 25.153C7.99885 25.7108 7.66786 26.38 7.50237 27.1051L4.02701 23.5914C1.43428 20.9702 0 17.5123 0 13.8314C0 10.1505 1.43428 6.69261 4.02701 4.07134C6.61973 1.45006 10.0399 0 13.6808 0C17.0458 0 20.1902 1.22698 22.6726 3.40208L10.0399 16.2296C9.59862 16.6757 9.37796 17.345 9.43312 18.0143C9.48829 18.4604 9.70894 18.9066 10.0399 19.2412C10.1503 19.3528 10.3158 19.4643 10.4812 19.5759C11.3087 20.022 12.2465 20.3009 13.2395 20.4125ZM44.0212 4.07134C38.6703 -1.33852 30.0095 -1.33852 24.7137 4.07134L11.3639 17.5123C11.3087 17.5681 11.3087 17.6239 11.3087 17.6796C11.3087 17.7354 11.3639 17.7912 11.419 17.847C13.4601 19.0182 16.0529 18.6835 17.763 16.9546L21.7348 12.939C22.1761 12.4929 22.7278 12.1582 23.3346 11.9909L28.9613 10.4851C29.4578 10.3735 29.9543 10.6524 30.1198 11.1543C30.2301 11.6563 29.9543 12.1582 29.4578 12.3256L23.831 13.8314C23.5552 13.8872 23.2794 14.0545 23.0587 14.2776L19.0317 18.3489C18.2043 19.1855 17.2113 19.799 16.1632 20.1336L9.81927 26.4916C8.99181 27.3281 8.99181 28.6667 9.81927 29.4475C10.6467 30.284 11.9707 30.284 12.743 29.4475L24.5482 17.5123C24.9343 17.1219 25.486 17.1219 25.8721 17.5123C26.2583 17.9027 26.2583 18.4604 25.8721 18.8508L14.0669 30.786C13.2395 31.6226 13.2395 32.9611 14.0669 33.7419C14.8944 34.5785 16.2183 34.5785 16.9907 33.7419L28.7958 21.8067C28.9613 21.6394 29.182 21.5279 29.4578 21.5279C29.6785 21.5279 29.9543 21.6394 30.1198 21.8067C30.2853 21.9741 30.3956 22.1971 30.3956 22.476C30.3956 22.6991 30.2853 22.978 30.1198 23.1453L18.3146 35.0804C17.9284 35.4708 17.7078 35.9728 17.7078 36.5305C17.7078 37.0882 17.9284 37.5901 18.3146 38.0363C18.7008 38.4267 19.2524 38.6498 19.804 38.6498C20.3557 38.6498 20.8522 38.4267 21.2935 38.0363L33.0987 26.1012C33.2642 25.9339 33.54 25.8223 33.7606 25.8223C33.9813 25.8223 34.2571 25.9339 34.4226 26.1012C34.8088 26.4916 34.8088 27.0493 34.4226 27.4397L22.5623 39.3748C22.1761 39.7652 21.9555 40.323 21.9555 40.8807C21.9555 41.4384 22.1761 41.9403 22.5623 42.3865C22.9484 42.7769 23.5001 43 24.0517 43C24.6033 43 25.0998 42.7769 25.5411 42.3865L44.0764 23.6472C49.317 18.2374 49.317 9.42542 44.0212 4.07134Z" fill="#3DB9F9"/>
</svg>
