<svg width="145" height="130" viewBox="0 0 145 130" fill="none" xmlns="http://www.w3.org/2000/svg">
<path d="M39.9942 61.7121L25.8296 76.0441C24.1632 77.7302 23.1633 79.7536 22.6634 81.9455L12.1649 71.323C4.33271 63.3982 0 52.9442 0 41.8158C0 30.6874 4.33271 20.2335 12.1649 12.3087C19.9971 4.38392 30.329 0 41.3274 0C51.4926 0 60.9912 3.70947 68.4901 10.2853L30.329 49.0661C28.9958 50.415 28.3292 52.4384 28.4959 54.4617C28.6625 55.8106 29.3291 57.1595 30.329 58.1712C30.6622 58.5084 31.1622 58.8457 31.6621 59.1829C34.1617 60.5318 36.9947 61.3748 39.9942 61.7121ZM132.981 12.3087C116.816 -4.04669 90.6536 -4.04669 74.6559 12.3087L34.3284 52.9442C34.1617 53.1128 34.1617 53.2815 34.1617 53.4501C34.1617 53.6187 34.3284 53.7873 34.495 53.9559C40.6608 57.4968 48.493 56.4851 53.6589 51.2581L65.6572 39.118C66.9903 37.7691 68.6568 36.7575 70.4898 36.2516L87.4874 31.6991C88.9872 31.3619 90.4869 32.2049 90.9869 33.7224C91.3202 35.2399 90.4869 36.7575 88.9872 37.2633L71.9896 41.8158C71.1564 41.9844 70.3232 42.4903 69.6566 43.1647L57.4917 55.4734C54.9921 58.0026 51.9925 59.8573 48.8263 60.869L29.6624 80.0908C27.1627 82.62 27.1627 86.6667 29.6624 89.0272C32.162 91.5564 36.1614 91.5564 38.4944 89.0272L74.156 52.9442C75.3225 51.7639 76.9889 51.7639 78.1554 52.9442C79.3219 54.1245 79.3219 55.8106 78.1554 56.9909L42.4939 93.0739C39.9942 95.6031 39.9942 99.6498 42.4939 102.01C44.9935 104.54 48.9929 104.54 51.3259 102.01L86.9875 65.9274C87.4874 65.4215 88.154 65.0843 88.9872 65.0843C89.6537 65.0843 90.4869 65.4215 90.9869 65.9274C91.4868 66.4332 91.8201 67.1077 91.8201 67.9507C91.8201 68.6252 91.4868 69.4682 90.9869 69.9741L55.3254 106.057C54.1589 107.237 53.4923 108.755 53.4923 110.441C53.4923 112.127 54.1589 113.645 55.3254 114.994C56.4919 116.174 58.1583 116.848 59.8247 116.848C61.4911 116.848 62.9909 116.174 64.3241 114.994L99.9856 78.9105C100.486 78.4047 101.319 78.0674 101.985 78.0674C102.652 78.0674 103.485 78.4047 103.985 78.9105C105.152 80.0908 105.152 81.7769 103.985 82.9572L68.1568 119.04C66.9903 120.22 66.3238 121.907 66.3238 123.593C66.3238 125.279 66.9903 126.796 68.1568 128.145C69.3233 129.326 70.9898 130 72.6562 130C74.3226 130 75.8224 129.326 77.1555 128.145L133.147 71.4916C148.979 55.1362 148.979 28.4955 132.981 12.3087Z" fill="#3DB9F9"/>
</svg>
